<?xml version="1.0" encoding="utf-8"?>
<!-- Generator: Adobe Illustrator 16.0.0, SVG Export Plug-In . SVG Version: 6.00 Build 0)  -->
<!DOCTYPE svg PUBLIC "-//W3C//DTD SVG 1.1//EN" "http://www.w3.org/Graphics/SVG/1.1/DTD/svg11.dtd">
<svg version="1.1" id="Layer_1" xmlns="http://www.w3.org/2000/svg" xmlns:xlink="http://www.w3.org/1999/xlink" x="0px" y="0px"
	 width="152px" height="81px" viewBox="0 0 152 81" enable-background="new 0 0 152 81" xml:space="preserve">
<g>
	<g>
		<g>
			<path fill="#2A2C2F" d="M5.698,24.019v-1.415h1.705c1.965,0,2.502-0.49,2.502-2.286V2.768H3.958
				c-1.145,0-1.747,0.539-2.289,3.724L1.616,6.794H0.258L0.91,0.192h1.326l0.049,0.302c0.007,0.038,0.019,0.106,0.156,0.153
				c0.177,0.059,0.394,0.09,0.61,0.09h17.441c0.441,0,0.742-0.096,0.768-0.243l0.052-0.302h1.323l0.652,6.602h-1.36l-0.051-0.303
				c-0.544-3.185-1.146-3.724-2.289-3.724h-5.948v17.55c0,1.796,0.538,2.286,2.504,2.286h1.702v1.415H5.698z"/>
			<path fill="#2A2C2F" d="M30.538,24.453c-4.35,0-9.032-2.78-9.032-8.884c0-5.63,4.674-8.668,9.067-8.668
				c4.468,0,8.994,2.978,8.994,8.668C39.567,21.673,34.886,24.453,30.538,24.453z M30.463,8.243c-3.548,0-5.402,3.539-5.402,7.035
				c0,3.926,0.956,5.41,1.887,6.343c0.989,0.989,2.185,1.491,3.553,1.491c2.664,0,5.511-1.973,5.511-7.508
				C36.011,10.926,33.99,8.243,30.463,8.243z"/>
			<path fill="#2A2C2F" d="M56.075,24.019v-1.355l0.338-0.023c1.733-0.119,2.236-0.263,2.236-0.979c0-0.392-0.035-1.174-0.071-1.601
				l-0.555-8.598l-5.481,12.557h-1.166l-5.323-12.576l-0.784,9.378c-0.035,0.357-0.071,0.847-0.071,1.057
				c0,0.505,0.622,0.762,1.851,0.762h0.36v1.38H40.59v-1.364l0.348-0.016c0.466-0.02,1.885-0.083,2.158-0.438
				c0.233-0.285,0.324-1.421,0.378-2.103l0.819-9.855c0.034-0.502,0.031-0.87-0.097-1.02c-0.176-0.201-0.79-0.259-1.78-0.328
				l-0.338-0.023V7.518h5.788l4.877,11.45l4.981-11.45h5.711v1.379h-0.362c-0.768,0-1.606,0.02-1.829,0.251
				c-0.047,0.047-0.103,0.143-0.093,0.424c0,0.265,0.036,1.272,0.071,2.065l0.545,8.586c0.14,2.101,0.161,2.422,1.878,2.422
				l0.696-0.017v1.391H56.075z"/>
			<path fill="#2A2C2F" d="M81.516,24.019v-1.355l0.342-0.023c1.73-0.119,2.234-0.263,2.234-0.979c0-0.392-0.035-1.174-0.07-1.601
				l-0.559-8.598l-5.479,12.557h-1.167l-5.325-12.576l-0.781,9.378c-0.035,0.357-0.07,0.847-0.07,1.057
				c0,0.505,0.621,0.762,1.848,0.762h0.363v1.38h-6.817v-1.364l0.347-0.016c0.465-0.02,1.885-0.083,2.156-0.438
				c0.233-0.285,0.325-1.421,0.379-2.103l0.817-9.855c0.036-0.502,0.034-0.87-0.093-1.02c-0.177-0.201-0.792-0.259-1.783-0.328
				l-0.337-0.023V7.518h5.789l4.875,11.45l4.98-11.45h5.713v1.379h-0.361c-0.77,0-1.609,0.02-1.832,0.251
				c-0.045,0.047-0.102,0.143-0.092,0.424c0,0.265,0.035,1.272,0.072,2.065l0.545,8.586c0.141,2.101,0.162,2.422,1.877,2.422
				l0.699-0.017v1.391H81.516z"/>
			<path fill="#2A2C2F" d="M96.092,24.019v-1.38h1.162c1.633,0,1.633,0,1.633-2.103v-3.19l-4.619-6.979
				c-0.951-1.443-0.969-1.47-2.926-1.47H90.98V7.518h8.412v1.361l-0.344,0.018c-1.287,0.063-1.455,0.076-1.529,0.138
				c-0.062,0.363,0.439,1.204,0.656,1.562l3.117,4.719l2.537-4.389c0.311-0.54,0.785-1.352,0.785-1.74
				c0-0.269-0.805-0.29-1.559-0.29h-0.365V7.518h6.494V8.89l-0.357,0.007c-1.736,0.032-1.775,0.098-2.783,1.766l-3.859,6.671v3.095
				c0,2.089,0.16,2.211,1.412,2.211h1.379v1.38H96.092z"/>
		</g>
		<g>
			<path fill="#2A2C2F" d="M138.598,24.453c-5.225,0-6.904-1.446-9.916-4.457l-2.393-2.394c-1.367-1.369-2.635-2.469-3.582-3.117
				l-0.453,0.02c-0.621,0.026-1.145,0.05-1.91,0.05c-0.625,0-1.053-0.023-1.486-0.05v5.741c0,1.828,0.57,2.357,2.539,2.357h1.197
				v1.415h-10.99v-1.415h0.98c1.904,0,2.539-0.383,2.539-2.646V4.69c0-2.041-0.463-2.538-2.357-2.538h-1.162V0.737h0.365
				c0.594,0,1.814-0.067,3.002-0.134l1.549-0.084c1.512-0.072,2.258-0.109,4.588-0.109c6.404,0,10.08,2.485,10.08,6.819
				c0,2.669-1.723,4.967-4.441,6.005c1.191,0.976,2.24,1.979,3.646,3.382l2.865,2.866c2.297,2.298,4.43,3.396,6.91,3.559l0.34,0.021
				V24.4l-0.348,0.016C139.607,24.441,139.086,24.453,138.598,24.453z M118.857,13.104c0.357,0.031,0.664,0.041,0.979,0.041
				l0.906-0.008c4.248,0,6.311-1.862,6.311-5.693c0-2.412-0.697-5.618-6.744-5.618c-0.012,0-0.023,0-0.035,0
				c-0.535,0-0.941,0-1.416,0.039V13.104z"/>
			<path fill="#2A2C2F" d="M146.52,24.562c-0.926,0-1.332-0.111-3.041-0.583c-0.34-0.087-0.465-0.105-0.512-0.105l-0.082,0.245
				l-0.426,0.081h-0.906l-0.514-4.643h1.387l0.084,0.244c1.123,3.219,3.457,3.312,3.719,3.312c0.697,0,2.684-0.447,2.684-2.432
				c0-1.607-1.174-2.499-3.852-4.151c-3.465-2.166-3.943-3.729-3.943-5.095c0-2.438,2.064-4.424,4.604-4.424
				c0.857,0,1.703,0.146,2.449,0.422c0.018,0.002,0.16,0.055,0.33,0.118c0.17,0.065,0.516,0.198,0.633,0.221
				c-0.004-0.01,0.051-0.052,0.137-0.173l0.109-0.154h1.166l0.438,4.354h-1.338l-0.09-0.231c-0.25-0.646-0.523-1.351-1.152-1.979
				c-0.771-0.805-1.701-1.09-2.316-1.09c-1.322,0-2.141,1.016-2.141,1.958c0,1.259,0.783,1.814,4.477,4.229
				c0.994,0.649,3.32,2.17,3.32,5.017C151.742,22.517,149.545,24.562,146.52,24.562z"/>
		</g>
		<polygon fill-rule="evenodd" clip-rule="evenodd" fill="#E8364B" points="136.311,7.077 135.531,0 140.316,1.188 		"/>
	</g>
	<rect x="0.683" y="31.269" fill-rule="evenodd" clip-rule="evenodd" fill="#2A2C2F" width="150.456" height="16.313"/>
	<g>
		<g>
			<path fill-rule="evenodd" clip-rule="evenodd" fill="#E8364B" d="M85.809,58.928c1.395,0.824,1.727-1.26,2.873-1.478
				c0.338,1.276-0.828,1.622-1.561,2.218c-1.166,0.945-2.07,2.232-3.283,3.28c-1.369,1.188-2.812,2.333-4.92,2.872
				c-0.34,3.244-3.55,3.615-5.91,4.839c0.552,1.073,3.199,0.928,3.693-0.079c0.923,0.666,1.798-0.375,2.546-0.329
				c0.529,0.031,0.457,0.421,1.064,0.493c0.471,0.002,0.186-0.744,0.654-0.738c0.73-0.042,0.486,0.979,1.066,0.982
				c0.477,0.004,0.281-0.434,0.658-0.737c0.797,0.173,1.57,0.729,2.461,0.329c0.285,0.207,0.418,0.566,0.74,0.736
				c3.193,0.146,6.982-0.309,8.285,1.723c1.26,0,2.516,0,3.773,0c0.518,0.346,0.486,0.795,0.984,1.15
				c1.188,0.838,3.508-0.122,4.27,1.148c-0.467,0.761-2.748,1.021-3.119,0c-1.162,0.59-2.486-0.338-3.854-0.49
				c-0.295-0.062-0.361-0.355-0.332-0.739c-0.887,0.532-1.686-0.146-2.459-0.247c-0.793-0.104-1.609,0.163-2.381-0.081
				c-0.229-0.022-0.086-0.407-0.246-0.493c-0.506-0.07-0.398,0.474-0.82,0.493c-1.383,0.083-2.467-1.448-3.365-0.164
				c-0.854-0.624-2.252,0.018-3.199,0.164c-2.316,0.357-4.67-0.185-7.057,0c-2.716,0.206-5.243,1.988-7.876,1.313
				c-0.272,0.331,0.142,0.522,0.081,0.9c-4.241,0.983-6.87,3.574-10.665,5.006c-0.92-0.912-1.184-2.484-1.97-3.527
				c1.382-2.039,4.668-2.171,5.825-4.434c2.386-0.553,4.335-1.929,6.153-3.279c5.385-4.004,10.526-8.236,14.852-13.375
				c-0.48-0.452-1.516-0.344-2.053-0.738c-1.176,0.347-2.111,1.568-3.693,1.556c-0.524-0.002-0.94-0.431-1.474-0.489
				c-1.229-0.143-2.307,1.078-3.361,0.982c-0.508-0.044-0.792-0.637-1.15-0.818c-0.872,0.223-1.326,0.861-1.971,1.312
				c-0.314-0.07-0.521-0.246-0.82-0.331c-0.602,0.669-1.486,0.4-2.709,0.577c-1.053,0.151-1.814,1.207-2.873,1.395
				c-0.314,0.055-0.635-0.057-0.9,0c-0.89,0.188-1.585,0.916-2.297,1.396c-1.082,0.04-1.86,0.388-2.868,0.49
				c-1.051,1.447-3.337,1.901-5.255,2.872c-0.455,0.232-0.85,0.656-1.229,0.741c-1.341,0.29-2.784-0.425-2.791,1.23
				c-1.138,0.093-2.051,0.409-3.121,0.573c-0.16-0.508,0.683-0.874,1.151-1.312c0.364-0.339,0.528-0.713,0.819-0.986
				c0.544-0.048,0.48,0.51,0.901,0.575c0.815-0.5,1.277-1.351,2.135-1.804c0.509,0.094,0.991,0.214,1.313,0.492
				c0.521-0.381,0.747-1.059,0.901-1.807c0.631,0,1.259,0,1.889,0c0.354-0.27,0.402-0.854,0.655-1.23
				c0.499-0.104,0.629,0.045,1.065-0.082c0.727-0.207,1.183-1.232,1.728-1.311c0.326-0.05,0.698,0.317,1.064,0.326
				c0.612,0.016,1.603-0.576,2.296-0.901c2.112-0.989,4.297-2.067,7.139-2.216c0.21-0.146,0.187-0.53,0.331-0.74
				c3.258,0.096,5.364-1.381,8.203-2.051c1.151-0.271,2.401-0.343,3.694-0.491c1.549-0.181,2.863-0.521,4.678-0.573
				c0.826,0.377,1.371,1.033,1.967,2.047c0.373,0.633,0.998,1.428,0.984,1.891C87.096,57.919,85.908,57.88,85.809,58.928z
				 M84.088,60.734c0.977-0.036,1.656-0.369,1.557-1.479C84.611,58.912,83.967,59.652,84.088,60.734z M62.751,77.227
				c1.443-0.116,2.367-0.754,3.037-1.643C64.558,75.914,63.131,76.045,62.751,77.227z M61.193,78.21
				c0.623-0.036,0.986-0.326,0.986-0.983C61.414,77.128,61.016,77.613,61.193,78.21z"/>
			<path fill-rule="evenodd" clip-rule="evenodd" fill="#E8364B" d="M103.859,75.174c0.828,0.156,1.342,0.629,1.971,0.985
				c-0.363,0.653-1.756-0.229-2.133,0.411C103.273,76.143,103.988,75.805,103.859,75.174z"/>
			<path fill-rule="evenodd" clip-rule="evenodd" fill="#E8364B" d="M106.65,75.914c0.658-0.002,0.945,0.371,0.982,0.983
				c-0.326,0-0.656,0-0.982,0C106.65,76.57,106.65,76.238,106.65,75.914z"/>
		</g>
	</g>
	<g>
		<path fill="#FFFFFF" d="M27.756,40.965c-0.096,0.623-0.379,1.531-0.66,2.145c-0.189-0.06-0.425-0.084-0.697-0.084
			c-0.552,0-1.143,0.213-2.025,0.213c-2.414,0-4.289-1.674-4.289-3.806c0-2.169,1.991-3.865,4.512-3.865
			c1.226,0,2.027,0.483,2.263,0.483c0.097,0,0.167-0.035,0.237-0.118h0.294l0.106,2.062h-0.46c-0.377-1.167-1.215-1.827-2.344-1.827
			c-1.686,0-2.852,1.272-2.852,3.135c0,1.898,1.296,3.358,2.98,3.358c1.083,0,1.979-0.625,2.462-1.696H27.756z"/>
		<path fill="#FFFFFF" d="M38.429,40.351l-0.494,1.379c-0.212,0.603-0.199,0.884,0.932,0.884h0.153v0.46h-3.122v-0.46h0.176
			c0.566,0,0.859-0.259,1.155-1.084l2.015-5.62l-0.131-0.342h1.745l2.357,5.985c0.305,0.779,0.564,1.014,1.177,1.061v0.46h-3.828
			v-0.46h0.41c0.72,0,0.826-0.317,0.591-0.895l-0.555-1.368H38.429z M39.657,36.947l-0.99,2.756h2.073L39.657,36.947z"/>
		<path fill="#FFFFFF" d="M55.385,41.729c0,0.612,0.188,0.884,1.025,0.884h0.281v0.46h-4.24v-0.46h0.4
			c0.647,0,0.908-0.259,0.908-0.884v-5.372h-1.392c-0.907,0-1.048,0.142-1.271,1.389h-0.485l0.213-2.202h0.377
			c0.094,0.082,0.153,0.143,0.225,0.165c0.081,0.023,0.178,0.036,0.34,0.036h5.61c0.318,0,0.377-0.023,0.564-0.201h0.379
			l0.213,2.202h-0.486c-0.223-1.236-0.363-1.389-1.271-1.389h-1.391V41.729z"/>
		<path fill="#FFFFFF" d="M70.985,36.393h-2.58v2.651h1.908c0.647,0,0.883-0.225,0.883-0.849h0.472v2.345h-0.472
			c0-0.637-0.151-0.849-1.057-0.849h-1.734v2.121c0,0.507,0.094,0.613,0.436,0.613h1.967c0.768,0,1.133-0.213,1.355-1.202h0.448
			l-0.143,1.85h-7.093v-0.46h0.483c0.684,0,0.919-0.271,0.919-0.849v-4.701c0-0.636-0.213-0.86-1.025-0.86h-0.118v-0.458h6.493
			l0.118,1.708h-0.447C71.681,36.651,71.528,36.393,70.985,36.393z"/>
		<path fill="#FFFFFF" d="M82.932,41.754c0,0.601,0.26,0.859,0.934,0.859h0.352v0.46h-4.123v-0.46h0.188
			c0.719,0,1.025-0.176,1.025-0.859v-4.655c0-0.564-0.154-0.896-0.943-0.896h-0.246v-0.458c0.588-0.036,1.035-0.059,1.521-0.095
			c0.658-0.047,1.506-0.083,1.93-0.083c1.732,0,2.674,0.224,3.264,0.812c0.389,0.391,0.564,0.838,0.564,1.344
			c0,0.896-0.646,1.602-1.74,1.898c0.775,0.647,1.189,1.579,2.025,2.414c0.482,0.483,0.812,0.625,1.555,0.695v0.46
			c-0.26,0.011-0.377,0.011-0.732,0.011c-1.459,0-2.059-0.212-2.615-0.765c-0.588-0.59-1.27-1.826-2.023-2.475h-0.934V41.754z
			 M82.932,39.467h0.461c1.424,0,2.248-0.435,2.248-1.694c0-1.25-0.951-1.699-2.094-1.699h-0.615V39.467z"/>
		<path fill="#FFFFFF" d="M96.906,35.745h3.746v0.458h-0.199c-0.637,0-0.896,0.272-0.896,0.885v4.666
			c0,0.578,0.199,0.859,0.92,0.859h0.176v0.46h-3.746v-0.46h0.166c0.623,0,0.857-0.294,0.857-0.812v-4.713
			c0-0.612-0.209-0.885-0.869-0.885h-0.154V35.745z"/>
		<path fill="#FFFFFF" d="M109.338,41.659c0,0.718,0.223,0.954,1.166,0.954v0.46h-2.852v-0.46h0.07c0.719,0,0.896-0.259,0.896-0.742
			v-5.408c-0.258-0.177-0.576-0.26-0.943-0.26v-0.458h2.428l4.807,5.018v-3.558c0-0.848-0.178-1.002-1.119-1.002h-0.117v-0.458
			h3.041v0.458h-0.119c-0.729,0-0.967,0.154-0.967,0.602v6.305h-0.648l-5.643-5.904V41.659z"/>
		<path fill="#FFFFFF" d="M132.066,39.999c-0.625,0.01-0.838,0.199-0.838,0.741v1.756c-0.846,0.388-2.061,0.742-3.072,0.742
			c-2.982,0-4.42-1.66-4.42-3.923c0-2.156,1.777-3.748,4.287-3.748c1.215,0,2.156,0.412,2.559,0.412c0.176,0,0.27-0.047,0.354-0.153
			h0.293v2.158h-0.471c-0.316-1.203-1.213-1.911-2.438-1.911c-1.674,0-2.83,1.321-2.83,3.229c0,1.934,1.215,3.37,2.854,3.37
			c0.445,0,0.939-0.118,1.26-0.306V40.74c0-0.59-0.248-0.719-1.447-0.741v-0.448h3.91V39.999z"/>
	</g>
</g>
</svg>
